<?xml version="1.0" standalone="no"?><!DOCTYPE svg PUBLIC "-//W3C//DTD SVG 1.1//EN" "http://www.w3.org/Graphics/SVG/1.1/DTD/svg11.dtd"><svg t="1689643151644" class="icon" viewBox="0 0 1075 1024" version="1.1" xmlns="http://www.w3.org/2000/svg" p-id="14025" xmlns:xlink="http://www.w3.org/1999/xlink" width="209.9609375" height="200"><path d="M243.59009566 842.84952333a401.432381 401.432381 0 0 1-117.613715-259.900952H42.66666666v-50.44419h83.236571A404.382476 404.382476 0 0 1 512.70704766 152.94171433V70.09523833h50.44419v83.846095a404.431238 404.431238 0 0 1 369.980953 378.514286H1017.90476166v50.44419h-84.870095a404.333714 404.333714 0 0 1-689.42019 259.900953z m-61.44-310.198857h694.686476a311.56419 311.56419 0 0 0-101.863619-229.180952 357.790476 357.790476 0 0 0-245.467429-95.085714c-191.536762 0.121905-347.355429 145.529905-347.355428 324.242285z" fill="#ffffff" p-id="14026"></path></svg>