<?xml version="1.0" standalone="no"?><!DOCTYPE svg PUBLIC "-//W3C//DTD SVG 1.1//EN" "http://www.w3.org/Graphics/SVG/1.1/DTD/svg11.dtd"><svg t="1689643236073" class="icon" viewBox="0 0 1024 1024" version="1.1" xmlns="http://www.w3.org/2000/svg" p-id="16371" xmlns:xlink="http://www.w3.org/1999/xlink" width="200" height="200"><path d="M65.6 256.9v510.2h510.2V256.9H65.6z m366.7 382.6h-95.7l-28.4-56.7-35.4 56.7H209l70.9-113.4L209 384.4h95.7l28.3 56.7 35.4-56.7h63.8l-70.9 113.4 71 141.7z m526.1-510.1v829H193.1V799h63.8v95.7h637.7V129.4H256.9V225h-63.8V65.6h765.3v63.8zM607.7 448.2h223.2V512H607.7v-63.8z m0-127.5h223.2v63.8H607.7v-63.8z m0 255.1h223.2v63.8H607.7v-63.8z m0 0" p-id="16372" fill="#ffffff"></path></svg>