<?xml version="1.0" standalone="no"?><!DOCTYPE svg PUBLIC "-//W3C//DTD SVG 1.1//EN" "http://www.w3.org/Graphics/SVG/1.1/DTD/svg11.dtd"><svg t="1689643080671" class="icon" viewBox="0 0 1024 1024" version="1.1" xmlns="http://www.w3.org/2000/svg" p-id="11870" xmlns:xlink="http://www.w3.org/1999/xlink" width="200" height="200"><path d="M805.892488 182.021505l-1.11828-1.548387a67.956989 67.956989 0 0 0-53.247312-27.182795 66.408602 66.408602 0 0 0-56.172043 29.935483c-22.365591 32.344086-40.860215 59.612903-56.860215 83.612904-41.72043-67.182796-92.215054-142.967742-151.913978-230.967742l-1.032258-1.462366a85.075269 85.075269 0 0 0-66.150538-34.408602 84.215054 84.215054 0 0 0-69.419355 36.903226c-35.010753 50.752688-66.666667 97.204301-95.139785 140.301075-12.989247-30.451613-35.526882-65.634409-68.817204-114.408602l-1.032258-1.462366a49.806452 49.806452 0 0 0-81.290323 1.634409C52.946251 136.516129 22.150552 184.774194 22.150552 235.526882a123.010753 123.010753 0 0 0 120.430108 122.752688c-65.290323 117.505376-94.623656 205.935484-94.623656 294.537634a370.666667 370.666667 0 0 0 694.107527 181.247312h8.60215a251.010753 251.010753 0 0 0 250.752688-250.752688c0.516129-101.333333-62.27957-204.989247-195.526881-401.290323zM99.74195 235.956989c0-21.247312 14.021505-48.344086 45.16129-95.225806 30.88172 47.225806 45.763441 75.44086 45.763441 95.225806a45.505376 45.505376 0 0 1-91.010753 0zM419.139799 946.580645a293.677419 293.677419 0 0 1-293.419354-293.333333c0-133.419355 84.903226-277.849462 288.430107-572.645161a6.27957 6.27957 0 0 1 4.645161-2.752689 7.827957 7.827957 0 0 1 4.55914 2.752689c203.870968 300.387097 289.11828 446.451613 289.11828 572.731182A293.677419 293.677419 0 0 1 419.053778 946.580645z m356.301076-191.139785a369.892473 369.892473 0 0 0 14.451613-102.27957c0-92.129032-34.924731-186.580645-107.268818-312.774193 18.064516-27.870968 39.913978-60.215054 68.301076-101.591398 122.322581 180.645161 173.591398 270.021505 173.591397 345.118279a173.419355 173.419355 0 0 1-149.075268 171.526882z" fill="#1296db" p-id="11871"></path><path d="M419.053778 894.451613A242.924731 242.924731 0 0 0 661.978509 651.526882s-79.053763-75.956989-242.924731 0-242.924731 0-242.924731 0a242.924731 242.924731 0 0 0 242.924731 242.924731z" fill="#1296db" p-id="11872"></path><path d="M476.602165 596.817204c-66.322581 10.150538-110.709677 52.731183-187.526882 56.516129-55.569892 0-100.55914-15.913978-100.55914-35.612903s52.215054-37.849462 107.698925-37.849462a1252.731183 1252.731183 0 0 1 180.387097 16.946236z" fill="#1296db" p-id="11873"></path></svg>