<?xml version="1.0" standalone="no"?><!DOCTYPE svg PUBLIC "-//W3C//DTD SVG 1.1//EN" "http://www.w3.org/Graphics/SVG/1.1/DTD/svg11.dtd"><svg t="1689671618029" class="icon" viewBox="0 0 1024 1024" version="1.1" xmlns="http://www.w3.org/2000/svg" p-id="24804" width="128" height="128" xmlns:xlink="http://www.w3.org/1999/xlink"><path d="M512 0C229.236364 0 0 229.236364 0 512s229.236364 512 512 512 512-229.236364 512-512A512 512 0 0 0 512 0z m0 46.545455a465.454545 465.454545 0 0 1 441.250909 613.003636h-31.650909a158.72 158.72 0 0 1-62.836364-14.429091 237.381818 237.381818 0 0 0-93.090909-19.549091 155.461818 155.461818 0 0 0-101.003636 41.425455 93.090909 93.090909 0 0 1-59.578182 26.530909 93.090909 93.090909 0 0 1-57.716364-26.996364 155.927273 155.927273 0 0 0-100.072727-40.96 167.098182 167.098182 0 0 0-96.349091 34.909091 156.858182 156.858182 0 0 1-93.090909 33.047273 119.621818 119.621818 0 0 1-80.058182-29.323637 169.425455 169.425455 0 0 0-109.847272-38.632727 22.807273 22.807273 0 0 0-6.981819 0A465.454545 465.454545 0 0 1 512 46.545455z m357.003636 763.810909l-10.705454-3.723637a237.381818 237.381818 0 0 0-93.090909-19.549091 155.927273 155.927273 0 0 0-101.003637 41.425455 93.090909 93.090909 0 0 1-57.250909 26.996364 93.090909 93.090909 0 0 1-57.716363-26.996364 155.927273 155.927273 0 0 0-100.072728-40.96 167.563636 167.563636 0 0 0-96.349091 34.909091 156.858182 156.858182 0 0 1-93.090909 33.047273A163.374545 163.374545 0 0 1 179.2 837.818182a465.454545 465.454545 0 0 1-101.934545-162.443637 128 128 0 0 1 75.403636 29.323637 165.236364 165.236364 0 0 0 106.589091 38.167273A199.68 199.68 0 0 0 376.087273 698.181818a124.741818 124.741818 0 0 1 71.214545-27.461818 110.778182 110.778182 0 0 1 71.68 31.650909 136.843636 136.843636 0 0 0 86.109091 37.701818 134.981818 134.981818 0 0 0 85.643636-36.770909 111.243636 111.243636 0 0 1 72.145455-31.650909 192.698182 192.698182 0 0 1 78.196364 16.756364 202.472727 202.472727 0 0 0 79.592727 17.687272h13.032727a465.454545 465.454545 0 0 1-64.698182 104.261819z m-611.607272 93.090909a200.145455 200.145455 0 0 0 118.225454-40.494546 124.741818 124.741818 0 0 1 71.214546-27.461818 111.243636 111.243636 0 0 1 71.68 31.185455 136.378182 136.378182 0 0 0 86.109091 36.770909 134.981818 134.981818 0 0 0 85.643636-36.770909 111.243636 111.243636 0 0 1 72.145454-31.650909 182.458182 182.458182 0 0 1 70.749091 13.963636 465.454545 465.454545 0 0 1-577.163636 54.458182h1.396364z" fill="#ffffff" p-id="24805"></path><path d="M512.093091 186.181818v0.465455c5.352727-0.465455 10.705455 1.349818 14.754909 4.980363 23.319273 26.763636 58.554182 73.867636 85.643636 110.033455a164.072727 164.072727 0 0 1 0 212.712727 136.797091 136.797091 0 0 1-100.165818 44.171637 136.797091 136.797091 0 0 1-100.165818-44.218182 161.978182 161.978182 0 0 1 0-212.666182c25.693091-33.186909 60.416-79.778909 84.247273-108.032a19.642182 19.642182 0 0 1 15.685818-7.447273z m40.494545 325.166546c34.117818 0 61.812364-28.858182 61.812364-64.418909 0-11.915636-9.262545-21.550545-20.666182-21.550546a21.131636 21.131636 0 0 0-20.712727 21.550546 20.945455 20.945455 0 0 1-20.48 21.317818 21.131636 21.131636 0 0 0-20.712727 21.550545c0 11.915636 9.309091 21.550545 20.712727 21.550546z" fill="#ffffff" p-id="24806"></path></svg>