<?xml version="1.0" standalone="no"?><!DOCTYPE svg PUBLIC "-//W3C//DTD SVG 1.1//EN" "http://www.w3.org/Graphics/SVG/1.1/DTD/svg11.dtd"><svg t="1689734998301" class="icon" viewBox="0 0 1024 1024" version="1.1" xmlns="http://www.w3.org/2000/svg" p-id="2522" xmlns:xlink="http://www.w3.org/1999/xlink" width="128" height="128"><path d="M784 544c79.5296 0 144 64.4704 144 144v176c0 35.3456-28.6544 64-64 64H688c-79.5296 0-144-64.4704-144-144V608c0-35.3456 28.6544-64 64-64h176z m-368 0c34.992 0 63.4256 28.0832 63.992 62.9424L480 608v176c0 78.7344-63.1888 142.7088-141.6192 143.9808L336 928H160c-34.992 0-63.4256-28.0832-63.992-62.9424L96 864V688c0-78.7344 63.1888-142.7088 141.6192-143.9808L240 544h176z m368 48H608c-8.8368 0-16 7.1632-16 16v176c0 53.0192 42.9808 96 96 96h176c8.8368 0 16-7.1632 16-16V688c0-53.0192-42.9808-96-96-96z m-368 0H240c-52.4896 0-95.1392 42.1248-95.9872 94.4128L144 688v176c0 8.688 6.9232 15.7568 15.552 15.9936l0.448 0.0064h176c52.4896 0 95.1392-42.1248 95.9872-94.4128L432 784V608c0-8.8368-7.1632-16-16-16zM336 96c79.5296 0 144 64.4704 144 144v176c0 35.3456-28.6544 64-64 64H240c-79.5296 0-144-64.4704-144-144V160c0-35.3456 28.6544-64 64-64h176z m432.288 0c13.2544 0 24 10.7456 24 24 0 13.2544-10.7456 24-24 24H688c-53.0192 0-96 42.9808-96 96v176c0 8.8368 7.1632 16 16 16h176c53.0192 0 96-42.9808 96-96v-80.0752c0-13.256 10.7456-24 24-24 13.2544 0 24 10.744 24 24V336c0 79.5296-64.4704 144-144 144H608c-35.3456 0-64-28.6544-64-64V240c0-79.5296 64.4704-144 144-144h80.288zM336 144H160c-8.8368 0-16 7.1632-16 16v176c0 53.0192 42.9808 96 96 96h176c8.8368 0 16-7.1632 16-16V240c0-53.0192-42.9808-96-96-96z m544-48c26.5104 0 48 21.4896 48 48 0 26.5104-21.4896 48-48 48-26.5104 0-48-21.4896-48-48 0-26.5104 21.4896-48 48-48z" fill="#1296db" p-id="2523"></path></svg>