<?xml version="1.0" standalone="no"?><!DOCTYPE svg PUBLIC "-//W3C//DTD SVG 1.1//EN" "http://www.w3.org/Graphics/SVG/1.1/DTD/svg11.dtd"><svg t="1689737767091" class="icon" viewBox="0 0 1024 1024" version="1.1" xmlns="http://www.w3.org/2000/svg" p-id="7123" xmlns:xlink="http://www.w3.org/1999/xlink" width="128" height="128"><path d="M512 0C229.205333 0 0 229.205333 0 512s229.205333 512 512 512 512-229.205333 512-512S794.794667 0 512 0zM394.410667 87.893333c-30.506667 25.813333-57.813333 61.226667-80.512 104.106667-20.693333-10.496-40.533333-22.485333-59.178667-36.010667h-1.408A438.442667 438.442667 0 0 1 394.410667 87.893333zM198.186667 203.605333A520.96 520.96 0 0 0 284.586667 257.92c-22.101333 60.074667-36.565333 129.493333-41.088 204.074667H74.794667a438.101333 438.101333 0 0 1 123.392-258.389334zM72.533333 534.016h169.813334c2.176 85.290667 17.493333 164.565333 42.282666 232.106667-30.72 15.189333-59.605333 33.493333-86.4 54.272A438.272 438.272 0 0 1 72.533333 534.016z m180.906667 333.994667h1.408c18.688-13.525333 38.4-25.514667 59.178667-36.010667 22.826667 42.88 50.005333 78.293333 80.512 104.106667a436.48 436.48 0 0 1-141.098667-68.096z m227.584 38.101333c-39.381333-12.501333-74.88-48.426667-102.997333-100.309333a437.802667 437.802667 0 0 1 102.997333-19.712v120.021333z m0-192.213333a508.16 508.16 0 0 0-131.669333 25.514666c-20.309333-58.88-32.896-129.28-34.986667-205.397333h166.656v179.882667z m0-251.904H315.52c4.096-65.408 16-125.781333 33.706667-177.408 41.813333 13.994667 85.888 22.698667 131.669333 25.514666v151.893334h0.085333z m0-224.085334a437.802667 437.802667 0 0 1-102.997333-19.712c28.117333-52.010667 63.616-87.893333 102.997333-100.266666v119.978666z m468.224 224.085334h-168.704c-4.48-74.581333-18.986667-144-41.088-204.074667 30.72-15.232 59.605333-33.536 86.4-54.314667a438.101333 438.101333 0 0 1 123.392 258.389334zM770.56 155.989333h-1.408c-18.688 13.525333-38.4 25.514667-59.178667 36.010667-22.826667-42.88-50.005333-78.293333-80.512-104.106667a436.48 436.48 0 0 1 141.098667 68.096z m-217.6-34.389333c35.413333 15.018667 67.285333 49.066667 93.013333 96.597333-29.696 9.514667-60.928 15.914667-93.013333 18.901334V121.6z m0 187.818667c42.197333-3.328 82.986667-11.818667 121.685333-24.832 17.792 51.626667 29.696 112 33.706667 177.408h-155.392V309.418667z m0 224.597333h156.714667c-2.133333 76.074667-14.72 146.474667-34.986667 205.397333a510.72 510.72 0 0 0-121.728-24.832v-180.565333z m0 368.384v-115.498667c32.085333 2.986667 63.189333 9.386667 93.013333 18.901334-25.728 47.488-57.6 81.578667-93.013333 96.597333z m76.586667 33.706667c30.506667-25.813333 57.813333-61.226667 80.512-104.106667 20.693333 10.496 40.533333 22.485333 59.178666 36.010667h1.408a438.442667 438.442667 0 0 1-141.098666 68.096z m196.224-115.712a520.96 520.96 0 0 0-86.4-54.314667c24.874667-67.498667 40.106667-146.858667 42.282666-232.106667h169.813334a438.272 438.272 0 0 1-125.696 286.421334z" fill="#1296db" opacity=".65" p-id="7124"></path></svg>